<?xml version="1.0" encoding="UTF-8" standalone="no"?>
<!-- Created with Inkscape (http://www.inkscape.org/) -->

<svg
   width="500"
   height="500"
   viewBox="0 0 132.29167 132.29167"
   version="1.1"
   id="svg5"
   sodipodi:docname="SheetRoutine.svg"
   inkscape:version="1.1.2 (0a00cf5339, 2022-02-04)"
   xmlns:inkscape="http://www.inkscape.org/namespaces/inkscape"
   xmlns:sodipodi="http://sodipodi.sourceforge.net/DTD/sodipodi-0.dtd"
   xmlns:xlink="http://www.w3.org/1999/xlink"
   xmlns="http://www.w3.org/2000/svg"
   xmlns:svg="http://www.w3.org/2000/svg">
  <sodipodi:namedview
     id="namedview64"
     pagecolor="#505050"
     bordercolor="#ffffff"
     borderopacity="1"
     inkscape:pageshadow="0"
     inkscape:pageopacity="0"
     inkscape:pagecheckerboard="1"
     showgrid="false"
     inkscape:zoom="0.685"
     inkscape:cx="223.35766"
     inkscape:cy="275.18248"
     inkscape:window-width="1554"
     inkscape:window-height="874"
     inkscape:window-x="0"
     inkscape:window-y="0"
     inkscape:window-maximized="1"
     inkscape:current-layer="layer1" />
  <defs
     id="defs2">
    <rect
       x="400.717"
       y="33.61926"
       width="100.56972"
       height="458.14243"
       id="rect11539" />
    <path
       d="M29.5833333,0 L4.4375,0 C1.996875,0 0,1.996875 0,4.4375 L0,60.6458333 C0,63.0864583 1.996875,65.0833333 4.4375,65.0833333 L42.8958333,65.0833333 C45.3364583,65.0833333 47.3333333,63.0864583 47.3333333,60.6458333 L47.3333333,17.75 L29.5833333,0 Z"
       id="path-1" />
    <path
       d="M29.5833333,0 L4.4375,0 C1.996875,0 0,1.996875 0,4.4375 L0,60.6458333 C0,63.0864583 1.996875,65.0833333 4.4375,65.0833333 L42.8958333,65.0833333 C45.3364583,65.0833333 47.3333333,63.0864583 47.3333333,60.6458333 L47.3333333,17.75 L29.5833333,0 Z"
       id="path-3" />
    <path
       d="M29.5833333,0 L4.4375,0 C1.996875,0 0,1.996875 0,4.4375 L0,60.6458333 C0,63.0864583 1.996875,65.0833333 4.4375,65.0833333 L42.8958333,65.0833333 C45.3364583,65.0833333 47.3333333,63.0864583 47.3333333,60.6458333 L47.3333333,17.75 L29.5833333,0 Z"
       id="path-5" />
    <linearGradient
       x1="39.10381"
       y1="17.866311"
       x2="39.10381"
       y2="32.906355"
       id="linearGradient-7"
       gradientTransform="scale(1.0001124,0.99988761)"
       gradientUnits="userSpaceOnUse">
      <stop
         stop-color="#263238"
         stop-opacity="0.2"
         offset="0%"
         id="stop975" />
      <stop
         stop-color="#263238"
         stop-opacity="0.02"
         offset="100%"
         id="stop977" />
    </linearGradient>
    <path
       d="M29.5833333,0 L4.4375,0 C1.996875,0 0,1.996875 0,4.4375 L0,60.6458333 C0,63.0864583 1.996875,65.0833333 4.4375,65.0833333 L42.8958333,65.0833333 C45.3364583,65.0833333 47.3333333,63.0864583 47.3333333,60.6458333 L47.3333333,17.75 L29.5833333,0 Z"
       id="path-8" />
    <path
       d="M29.5833333,0 L4.4375,0 C1.996875,0 0,1.996875 0,4.4375 L0,60.6458333 C0,63.0864583 1.996875,65.0833333 4.4375,65.0833333 L42.8958333,65.0833333 C45.3364583,65.0833333 47.3333333,63.0864583 47.3333333,60.6458333 L47.3333333,17.75 L29.5833333,0 Z"
       id="path-10" />
    <path
       d="M29.5833333,0 L4.4375,0 C1.996875,0 0,1.996875 0,4.4375 L0,60.6458333 C0,63.0864583 1.996875,65.0833333 4.4375,65.0833333 L42.8958333,65.0833333 C45.3364583,65.0833333 47.3333333,63.0864583 47.3333333,60.6458333 L47.3333333,17.75 L29.5833333,0 Z"
       id="path-12" />
    <path
       d="M29.5833333,0 L4.4375,0 C1.996875,0 0,1.996875 0,4.4375 L0,60.6458333 C0,63.0864583 1.996875,65.0833333 4.4375,65.0833333 L42.8958333,65.0833333 C45.3364583,65.0833333 47.3333333,63.0864583 47.3333333,60.6458333 L47.3333333,17.75 L29.5833333,0 Z"
       id="path-14" />
    <radialGradient
       cx="1.7583691"
       cy="1.5082694"
       fx="1.7583691"
       fy="1.5082694"
       r="89.498173"
       gradientTransform="scale(0.85280287,1.1726039)"
       id="radialGradient-16"
       gradientUnits="userSpaceOnUse">
      <stop
         stop-color="#FFFFFF"
         stop-opacity="0.1"
         offset="0%"
         id="stop984" />
      <stop
         stop-color="#FFFFFF"
         stop-opacity="0"
         offset="100%"
         id="stop986" />
    </radialGradient>
  </defs>
  <g
     id="layer1">
    <g
       id="Sheets-icon"
       transform="matrix(2.035876,0,0,1.9689028,3.4157604,2.9932738)"
       style="fill:none;fill-rule:evenodd;stroke:none;stroke-width:1">
      <g
         id="g1053">
        <g
           id="Clipped">
          <mask
             id="mask-2"
             fill="#ffffff">
            <use
               xlink:href="#path-1"
               id="use991"
               x="0"
               y="0"
               width="100%"
               height="100%" />
          </mask>
          <g
             id="SVGID_1_" />
          <path
             d="M 29.583333,0 H 4.4375 C 1.996875,0 0,1.996875 0,4.4375 v 56.208333 c 0,2.440625 1.996875,4.4375 4.4375,4.4375 h 38.458333 c 2.440625,0 4.4375,-1.996875 4.4375,-4.4375 V 17.75 L 36.979167,10.354167 Z"
             id="Path"
             fill="#0f9d58"
             fill-rule="nonzero"
             mask="url(#mask-2)" />
        </g>
        <g
           id="g1003">
          <mask
             id="mask-4"
             fill="#ffffff">
            <use
               xlink:href="#path-3"
               id="use997"
               x="0"
               y="0"
               width="100%"
               height="100%" />
          </mask>
          <g
             id="g1000" />
          <path
             d="M 11.833333,31.802083 V 53.25 H 35.5 V 31.802083 Z M 22.1875,50.291667 H 14.791667 V 46.59375 H 22.1875 Z m 0,-5.916667 H 14.791667 V 40.677083 H 22.1875 Z m 0,-5.916667 H 14.791667 V 34.760417 H 22.1875 Z M 32.541667,50.291667 H 25.145833 V 46.59375 h 7.395834 z m 0,-5.916667 h -7.395834 v -3.697917 h 7.395834 z m 0,-5.916667 h -7.395834 v -3.697916 h 7.395834 z"
             id="Shape"
             fill="#f1f1f1"
             fill-rule="nonzero"
             mask="url(#mask-4)" />
        </g>
        <g
           id="g1012">
          <mask
             id="mask-6"
             fill="#ffffff">
            <use
               xlink:href="#path-5"
               id="use1005"
               x="0"
               y="0"
               width="100%"
               height="100%" />
          </mask>
          <g
             id="g1008" />
          <polygon
             id="polygon1010"
             fill="url(#linearGradient-7)"
             fill-rule="nonzero"
             mask="url(#mask-6)"
             points="47.333333,32.900365 47.333333,17.75 30.881302,16.452031 "
             style="fill:url(#linearGradient-7)" />
        </g>
        <g
           id="g1024">
          <mask
             id="mask-9"
             fill="#ffffff">
            <use
               xlink:href="#path-8"
               id="use1014"
               x="0"
               y="0"
               width="100%"
               height="100%" />
          </mask>
          <g
             id="g1017" />
          <g
             id="Group"
             mask="url(#mask-9)">
            <g
               transform="translate(26.625,-2.958333)"
               id="g1021">
              <path
                 d="M 2.9583333,2.9583333 V 16.270833 c 0,2.451719 1.9857813,4.4375 4.4375,4.4375 H 20.708333 Z"
                 id="path1019"
                 fill="#87ceac"
                 fill-rule="nonzero" />
            </g>
          </g>
        </g>
        <g
           id="g1033">
          <mask
             id="mask-11"
             fill="#ffffff">
            <use
               xlink:href="#path-10"
               id="use1026"
               x="0"
               y="0"
               width="100%"
               height="100%" />
          </mask>
          <g
             id="g1029" />
          <path
             d="M 4.4375,0 C 1.996875,0 0,1.996875 0,4.4375 V 4.8072917 C 0,2.3666667 1.996875,0.36979167 4.4375,0.36979167 H 29.583333 V 0 Z"
             id="path1031"
             fill-opacity="0.2"
             fill="#ffffff"
             fill-rule="nonzero"
             mask="url(#mask-11)" />
        </g>
        <g
           id="g1042">
          <mask
             id="mask-13"
             fill="#ffffff">
            <use
               xlink:href="#path-12"
               id="use1035"
               x="0"
               y="0"
               width="100%"
               height="100%" />
          </mask>
          <g
             id="g1038" />
          <path
             d="M 42.895833,64.713542 H 4.4375 C 1.996875,64.713542 0,62.716667 0,60.276042 v 0.369791 c 0,2.440625 1.996875,4.4375 4.4375,4.4375 h 38.458333 c 2.440625,0 4.4375,-1.996875 4.4375,-4.4375 v -0.369791 c 0,2.440625 -1.996875,4.4375 -4.4375,4.4375 z"
             id="path1040"
             fill-opacity="0.2"
             fill="#263238"
             fill-rule="nonzero"
             mask="url(#mask-13)" />
        </g>
        <g
           id="g1051">
          <mask
             id="mask-15"
             fill="#ffffff">
            <use
               xlink:href="#path-14"
               id="use1044"
               x="0"
               y="0"
               width="100%"
               height="100%" />
          </mask>
          <g
             id="g1047" />
          <path
             d="m 34.020833,17.75 c -2.451718,0 -4.4375,-1.985781 -4.4375,-4.4375 v 0.369792 c 0,2.451718 1.985782,4.4375 4.4375,4.4375 h 13.3125 V 17.75 Z"
             id="path1049"
             fill-opacity="0.1"
             fill="#263238"
             fill-rule="nonzero"
             mask="url(#mask-15)" />
        </g>
      </g>
      <path
         d="M 29.583333,0 H 4.4375 C 1.996875,0 0,1.996875 0,4.4375 v 56.208333 c 0,2.440625 1.996875,4.4375 4.4375,4.4375 h 38.458333 c 2.440625,0 4.4375,-1.996875 4.4375,-4.4375 V 17.75 Z"
         id="path1055"
         fill="url(#radialGradient-16)"
         fill-rule="nonzero"
         style="fill:url(#radialGradient-16)" />
    </g>
    <g
       aria-label="Sheet Routine"
       transform="matrix(0.81545066,0,0,0.46619733,-233.20238,-12.881769)"
       id="text11537"
       style="font-size:40px;line-height:1.25;writing-mode:vertical-lr;white-space:pre;shape-inside:url(#rect11539);fill:#1fa463">
      <path
         d="m 418.62945,44.379141 q 0,1.32 0.2,2.16 0.24,0.88 0.6,1.4 0.4,0.52 0.92,0.72 0.52,0.2 1.16,0.2 1.36,0 2.24,-1.28 0.92,-1.28 1.96,-4.4 0.48,-1.36 1.08,-2.72 0.64,-1.36 1.56,-2.44 0.96,-1.08 2.28,-1.76 1.36,-0.68 3.28,-0.68 1.92,0 3.44,0.72 1.56,0.72 2.64,2.04 1.08,1.32 1.64,3.2 0.6,1.88 0.6,4.24 0,2.8 -0.6,4.84 -0.6,2.04 -1.32,3.36 l -4.92,-1.8 q 0.6,-1.16 1.04,-2.6 0.48,-1.4 0.48,-3.4 0,-2.24 -0.64,-3.24 -0.6,-0.96 -1.88,-0.96 -0.76,0 -1.28,0.36 -0.52,0.36 -0.96,1 -0.4,0.68 -0.76,1.52 -0.32,0.88 -0.68,1.92 -0.8,2.16 -1.6,3.76 -0.76,1.6 -1.8,2.64 -1.04,1.08 -2.44,1.6 -1.4,0.52 -3.4,0.52 -3.88,0 -6.04,-2.72 -2.12,-2.72 -2.12,-8.2 0,-1.84 0.24,-3.32 0.2,-1.48 0.52,-2.64 0.32,-1.12 0.68,-1.96 0.36,-0.8 0.68,-1.36 l 4.96,1.76 q -0.68,1.24 -1.24,3.04 -0.52,1.84 -0.52,4.48 z"
         style="font-weight:bold;font-family:Ubuntu;-inkscape-font-specification:Ubuntu"
         id="path881" />
      <path
         d="m 413.86945,59.699094 h 30.08 l 0.96,5.96 h -10.08 q 0.2,0.6 0.36,1.52 0.2,0.96 0.2,1.84 0,2.56 -0.72,4.24 -0.68,1.72 -1.96,2.72 -1.28,1.04 -3.04,1.44 -1.76,0.44 -3.92,0.44 h -11.88 v -5.96 h 11.16 q 2.88,0 4.08,-0.76 1.2,-0.72 1.2,-2.72 0,-0.8 -0.16,-1.52 -0.12,-0.68 -0.28,-1.24 h -16 z"
         style="font-weight:bold;font-family:Ubuntu;-inkscape-font-specification:Ubuntu"
         id="path883" />
      <path
         d="m 424.22945,82.259045 q 2.8,0 4.88,0.84 2.12,0.88 3.52,2.28 1.4,1.4 2.12,3.2 0.72,1.84 0.72,3.76 0,4.48 -2.76,7.08 -2.72,2.600005 -8.04,2.600005 -0.52,0 -1.16,-0.04 -0.6,-0.04 -1.08,-0.08 V 88.379045 q -1.84,0.2 -2.92,1.72 -1.08,1.52 -1.08,4.08 0,1.64 0.28,3.2 0.32,1.6 0.76,2.6 l -4.84,0.800005 q -0.24,-0.48 -0.48,-1.280005 -0.24,-0.8 -0.4,-1.8 -0.2,-0.96 -0.32,-2.08 -0.12,-1.12 -0.12,-2.24 0,-2.84 0.84,-4.96 0.84,-2.08 2.28,-3.48 1.48,-1.36 3.48,-2.04 2,-0.64 4.32,-0.64 z m 2.28,14 q 0.76,-0.04 1.48,-0.28 0.72,-0.2 1.28,-0.68 0.56,-0.44 0.92,-1.16 0.36,-0.68 0.36,-1.72 0,-1 -0.36,-1.72 -0.32,-0.72 -0.88,-1.2 -0.56,-0.48 -1.32,-0.76 -0.72,-0.24 -1.48,-0.36 z"
         style="font-weight:bold;font-family:Ubuntu;-inkscape-font-specification:Ubuntu"
         id="path885" />
      <path
         d="m 424.22945,105.61903 q 2.8,0 4.88,0.84 2.12,0.88 3.52,2.28 1.4,1.4 2.12,3.2 0.72,1.84 0.72,3.76 0,4.48 -2.76,7.08 -2.72,2.6 -8.04,2.6 -0.52,0 -1.16,-0.04 -0.6,-0.04 -1.08,-0.08 v -13.52 q -1.84,0.2 -2.92,1.72 -1.08,1.52 -1.08,4.08 0,1.64 0.28,3.2 0.32,1.6 0.76,2.6 l -4.84,0.8 q -0.24,-0.48 -0.48,-1.28 -0.24,-0.8 -0.4,-1.8 -0.2,-0.96 -0.32,-2.08 -0.12,-1.12 -0.12,-2.24 0,-2.84 0.84,-4.96 0.84,-2.08 2.28,-3.48 1.48,-1.36 3.48,-2.04 2,-0.64 4.32,-0.64 z m 2.28,14 q 0.76,-0.04 1.48,-0.28 0.72,-0.2 1.28,-0.68 0.56,-0.44 0.92,-1.16 0.36,-0.68 0.36,-1.72 0,-1 -0.36,-1.72 -0.32,-0.72 -0.88,-1.2 -0.56,-0.48 -1.32,-0.76 -0.72,-0.24 -1.48,-0.36 z"
         style="font-weight:bold;font-family:Ubuntu;-inkscape-font-specification:Ubuntu"
         id="path887" />
      <path
         d="m 440.14945,129.77902 0.96,5.96 h -6.2 v 7.16 h -4.96 v -7.16 h -7.4 q -1.88,0 -3,0.64 -1.12,0.68 -1.12,2.68 0,0.96 0.16,1.96 0.2,1.04 0.52,1.88 l -4.64,0.84 q -0.44,-1.08 -0.76,-2.4 -0.32,-1.32 -0.32,-3.24 0,-2.44 0.64,-4.04 0.68,-1.6 1.84,-2.56 1.2,-0.96 2.88,-1.36 1.68,-0.36 3.72,-0.36 z"
         style="font-weight:bold;font-family:Ubuntu;-inkscape-font-specification:Ubuntu"
         id="path889" />
      <path
         d="m 441.90945,165.85894 q 0,6.24 -2.24,9.56 -2.2,3.32 -6.88,3.32 -2.92,0 -4.76,-1.36 -1.8,-1.32 -2.84,-3.84 -1.04,0.84 -2.4,1.76 -1.32,0.92 -2.8,1.8 -1.44,0.92 -3.04,1.76 -1.56,0.84 -3.08,1.56 v -7 q 1.36,-0.76 2.76,-1.56 1.4,-0.76 2.72,-1.6 1.32,-0.8 2.48,-1.6 1.2,-0.8 2.16,-1.6 v -3.08 h -10.12 v -6.24 h 27.32 q 0.4,2.04 0.56,4.2 0.16,2.2 0.16,3.92 z m -5.32,0.36 q 0,-0.68 -0.04,-1.24 -0.04,-0.52 -0.08,-1 h -7.52 v 1.76 q 0,3.52 0.88,5.04 0.88,1.52 3,1.52 2.04,0 2.88,-1.56 0.88,-1.52 0.88,-4.52 z"
         style="font-weight:bold;font-family:Ubuntu;-inkscape-font-specification:Ubuntu"
         id="path891" />
      <path
         d="m 424.42945,202.69887 q -2.48,0 -4.56,-0.72 -2.04,-0.72 -3.52,-2.08 -1.44,-1.36 -2.24,-3.28 -0.8,-1.88 -0.8,-4.24 0,-2.32 0.8,-4.24 0.8,-1.88 2.24,-3.24 1.48,-1.36 3.52,-2.12 2.08,-0.76 4.56,-0.76 2.48,0 4.52,0.76 2.04,0.8 3.48,2.16 1.44,1.4 2.24,3.28 0.8,1.92 0.8,4.16 0,2.28 -0.8,4.16 -0.8,1.92 -2.24,3.28 -1.44,1.36 -3.48,2.12 -2.04,0.76 -4.52,0.76 z m 0,-6.08 q 2.76,0 4.32,-1.12 1.6,-1.08 1.6,-3.12 0,-2.04 -1.6,-3.16 -1.56,-1.12 -4.32,-1.12 -2.76,0 -4.4,1.12 -1.6,1.12 -1.6,3.16 0,2.04 1.6,3.12 1.64,1.12 4.4,1.12 z"
         style="font-weight:bold;font-family:Ubuntu;-inkscape-font-specification:Ubuntu"
         id="path893" />
      <path
         d="m 414.58945,225.25881 q -0.44,-1.52 -0.8,-3.92 -0.4,-2.4 -0.4,-5.04 0,-2.68 0.72,-4.48 0.72,-1.76 2,-2.8 1.32,-1.04 3.12,-1.48 1.8,-0.44 3.96,-0.44 h 11.72 v 5.96 h -11 q -2.88,0 -4.16,0.76 -1.28,0.76 -1.28,2.84 0,0.64 0.04,1.36 0.08,0.72 0.16,1.28 h 16.24 v 5.96 z"
         style="font-weight:bold;font-family:Ubuntu;-inkscape-font-specification:Ubuntu"
         id="path895" />
      <path
         d="m 440.14945,230.65876 0.96,5.96 h -6.2 v 7.16 h -4.96 v -7.16 h -7.4 q -1.88,0 -3,0.64 -1.12,0.68 -1.12,2.68 0,0.96 0.16,1.96 0.2,1.04 0.52,1.88 l -4.64,0.84 q -0.44,-1.08 -0.76,-2.4 -0.32,-1.32 -0.32,-3.24 0,-2.44 0.64,-4.04 0.68,-1.6 1.84,-2.56 1.2,-0.96 2.88,-1.36 1.68,-0.36 3.72,-0.36 z"
         style="font-weight:bold;font-family:Ubuntu;-inkscape-font-specification:Ubuntu"
         id="path897" />
      <path
         d="m 413.86945,254.5787 v -5.96 h 21.04 v 5.96 z m 27.12,0.56 q -1.64,0 -2.6,-1.08 -0.92,-1.04 -0.92,-2.48 0,-1.44 0.92,-2.52 0.96,-1.04 2.6,-1.04 1.64,0 2.56,1.04 0.96,1.08 0.96,2.52 0,1.44 -0.96,2.48 -0.92,1.08 -2.56,1.08 z"
         style="font-weight:bold;font-family:Ubuntu;-inkscape-font-specification:Ubuntu"
         id="path899" />
      <path
         d="m 434.18945,260.17868 q 0.44,1.52 0.8,3.92 0.4,2.4 0.4,5.04 0,2.68 -0.72,4.44 -0.68,1.8 -1.96,2.84 -1.28,1.04 -3.04,1.48 -1.76,0.44 -3.92,0.44 h -11.88 v -5.96 h 11.16 q 2.88,0 4.08,-0.76 1.2,-0.76 1.2,-2.84 0,-0.64 -0.08,-1.36 -0.04,-0.72 -0.12,-1.28 h -16.24 v -5.96 z"
         style="font-weight:bold;font-family:Ubuntu;-inkscape-font-specification:Ubuntu"
         id="path901" />
      <path
         d="m 424.22945,282.73863 q 2.8,0 4.88,0.84 2.12,0.88 3.52,2.28 1.4,1.4 2.12,3.2 0.72,1.84 0.72,3.76 0,4.48 -2.76,7.08 -2.72,2.6 -8.04,2.6 -0.52,0 -1.16,-0.04 -0.6,-0.04 -1.08,-0.08 v -13.52 q -1.84,0.2 -2.92,1.72 -1.08,1.52 -1.08,4.08 0,1.64 0.28,3.2 0.32,1.6 0.76,2.6 l -4.84,0.8 q -0.24,-0.48 -0.48,-1.28 -0.24,-0.8 -0.4,-1.8 -0.2,-0.96 -0.32,-2.08 -0.12,-1.12 -0.12,-2.24 0,-2.84 0.84,-4.96 0.84,-2.08 2.28,-3.48 1.48,-1.36 3.48,-2.04 2,-0.64 4.32,-0.64 z m 2.28,14 q 0.76,-0.04 1.48,-0.28 0.72,-0.2 1.28,-0.68 0.56,-0.44 0.92,-1.16 0.36,-0.68 0.36,-1.72 0,-1 -0.36,-1.72 -0.32,-0.72 -0.88,-1.2 -0.56,-0.48 -1.32,-0.76 -0.72,-0.24 -1.48,-0.36 z"
         style="font-weight:bold;font-family:Ubuntu;-inkscape-font-specification:Ubuntu"
         id="path903" />
    </g>
    <g
       aria-label="S R"
       transform="scale(1.0445293,0.95736902)"
       id="text71866"
       style="font-size:32.8837px;line-height:1.25;fill:#f2f2f2;stroke-width:0.822092">
      <path
         d="m 24.092654,29.434191 q 0,3.123951 -2.268975,4.998322 -2.236092,1.841488 -6.379439,1.841488 -3.715858,0 -6.6425072,-1.413999 V 30.2234 q 1.6770692,0.723441 3.4527882,1.348231 1.808604,0.591907 3.584324,0.591907 1.841487,0 2.597812,-0.690558 0.789209,-0.723441 0.789209,-1.808603 0,-0.88786 -0.62479,-1.51265 -0.591907,-0.624791 -1.611302,-1.15093 -1.019394,-0.559023 -2.334742,-1.183813 -0.822093,-0.394605 -1.77572,-0.920744 -0.953628,-0.559023 -1.841488,-1.348232 -0.854976,-0.822092 -1.4139987,-1.973022 -0.5590229,-1.150929 -0.5590229,-2.762231 0,-3.156835 2.1374406,-4.899671 2.137441,-1.77572 5.820415,-1.77572 1.841487,0 3.485672,0.427488 1.677069,0.427488 3.485673,1.216697 l -1.611302,3.880277 Q 20.7714,17.004152 19.488936,16.642431 18.206471,16.28071 16.85824,16.28071 q -1.414,0 -2.170325,0.657674 -0.756325,0.657674 -0.756325,1.709953 0,1.24958 1.118046,1.973022 1.118046,0.723441 3.321254,1.77572 1.808603,0.854976 3.058184,1.77572 1.282464,0.920743 1.973022,2.170324 0.690558,1.249581 0.690558,3.091068 z"
         style="font-weight:bold"
         id="path1023" />
      <path
         d="m 43.757008,12.466201 q 4.801021,0 7.069996,1.742836 2.301859,1.742836 2.301859,5.294276 0,1.611301 -0.62479,2.827998 -0.591907,1.183814 -1.611301,2.03879 -0.986511,0.822092 -2.137441,1.348232 l 6.905577,10.226831 H 50.136446 L 44.546217,26.93503 h -2.66358 v 9.010134 H 36.917199 V 12.466201 Z m -0.36172,4.077579 h -1.512651 v 6.346554 h 1.611302 q 2.466277,0 3.518556,-0.822092 1.085162,-0.822093 1.085162,-2.433394 0,-1.677069 -1.15093,-2.367627 -1.118045,-0.723441 -3.551439,-0.723441 z"
         style="font-weight:bold"
         id="path1025" />
    </g>
  </g>
</svg>
